<svg xmlns="http://www.w3.org/2000/svg" xmlns:xlink="http://www.w3.org/1999/xlink" width="500" zoomAndPan="magnify" viewBox="0 0 375 374.999991" height="500" preserveAspectRatio="xMidYMid meet" version="1.0"><defs><clipPath id="2472cbca01"><path d="M 4.011719 64 L 321 64 L 321 341 L 4.011719 341 Z M 4.011719 64 " clip-rule="nonzero"/></clipPath><clipPath id="29ef80a9b6"><path d="M 4.011719 150 L 56 150 L 56 210 L 4.011719 210 Z M 4.011719 150 " clip-rule="nonzero"/></clipPath><clipPath id="e0509fe750"><path d="M 332 25.53125 L 370.761719 25.53125 L 370.761719 64 L 332 64 Z M 332 25.53125 " clip-rule="nonzero"/></clipPath><clipPath id="08fa90d4c8"><path d="M 211 293 L 268 293 L 268 349.527344 L 211 349.527344 Z M 211 293 " clip-rule="nonzero"/></clipPath></defs><rect x="-37.5" width="450" fill="#ffffff" y="-37.499999" height="449.999989" fill-opacity="1"/><rect x="-37.5" width="450" fill="#ffffff" y="-37.499999" height="449.999989" fill-opacity="1"/><path fill="#d4e7ff" d="M 340.726562 209.683594 C 336.976562 290.726562 264.910156 313.796875 175.144531 315.527344 C 38.261719 318.171875 22.328125 274.667969 22.328125 193.539062 C 22.328125 112.414062 52.171875 28.648438 131.292969 34.824219 C 168.882812 37.757812 211.546875 100.085938 243.492188 120.765625 C 287.625 149.339844 343.546875 148.804688 340.726562 209.683594 Z M 340.726562 209.683594 " fill-opacity="1" fill-rule="nonzero"/><g clip-path="url(#2472cbca01)"><path stroke-linecap="butt" transform="matrix(0.597313, 0, 0, 0.597783, 4.012466, 25.529601)" fill="none" stroke-linejoin="miter" d="M 27.145075 364.840134 C 27.145075 364.840134 74.878399 344.021036 96.819117 276.146594 C 118.766375 208.265618 158.540876 151.101315 233.930623 147.272065 C 309.30729 143.429746 390.837822 148.15423 417.787956 107.698789 C 444.718471 67.243348 387.149427 66.321976 386.345043 137.300331 C 385.53412 208.278687 509.592369 338.447059 516.079759 439.523583 C 522.560609 540.593573 438.800036 520.539018 334.733672 479.90061 C 230.667309 439.281805 122.029689 519.676457 54.317559 489.604426 C -13.394571 459.519327 -10.458243 395.212754 27.145075 364.840134 Z M 27.145075 364.840134 " stroke="#4570b4" stroke-width="1" stroke-opacity="0.42" stroke-miterlimit="10"/></g><path fill="#4570b4" d="M 26.277344 196.601562 C 35.308594 196.601562 42.628906 189.277344 42.628906 180.246094 C 42.628906 171.210938 35.308594 163.890625 26.277344 163.890625 C 17.25 163.890625 9.929688 171.210938 9.929688 180.246094 C 9.929688 189.277344 17.25 196.601562 26.277344 196.601562 Z M 26.277344 196.601562 " fill-opacity="0.42" fill-rule="nonzero"/><g clip-path="url(#29ef80a9b6)"><path stroke-linecap="butt" transform="matrix(0.597313, 0, 0, 0.597783, 4.012466, 25.529601)" fill="none" stroke-linejoin="miter" d="M 61.975556 283.51104 C 75.623926 269.87342 75.623926 247.76048 61.975556 234.122859 C 48.333727 220.485239 26.216436 220.485239 12.574607 234.122859 C -1.067223 247.76048 -1.067223 269.87342 12.574607 283.51104 C 26.216436 297.14866 48.333727 297.14866 61.975556 283.51104 Z M 61.975556 283.51104 " stroke="#4570b4" stroke-width="1" stroke-opacity="0.42" stroke-miterlimit="10"/></g><path fill="#4570b4" d="M 336.808594 209.683594 C 347.339844 209.683594 355.878906 201.144531 355.878906 190.605469 C 355.878906 180.070312 347.339844 171.527344 336.808594 171.527344 C 326.277344 171.527344 317.738281 180.070312 317.738281 190.605469 C 317.738281 201.144531 326.277344 209.683594 336.808594 209.683594 Z M 336.808594 209.683594 " fill-opacity="0.42" fill-rule="nonzero"/><path stroke-linecap="butt" transform="matrix(0.597313, 0, 0, 0.597783, 4.012466, 25.529601)" fill="none" stroke-linejoin="miter" d="M 334.177797 190.066878 L 325.565003 203.756774 L 343.915422 203.756774 Z M 334.177797 190.066878 " stroke="#4570b4" stroke-width="1" stroke-opacity="0.42" stroke-miterlimit="10"/><path fill="#4570b4" d="M 131.027344 63.015625 L 124.148438 73.9375 L 138.792969 73.9375 Z M 131.027344 63.015625 " fill-opacity="0.42" fill-rule="nonzero"/><path fill="#4570b4" d="M 182.570312 85.078125 C 193.550781 85.078125 202.453125 76.171875 202.453125 65.1875 C 202.453125 54.199219 193.550781 45.292969 182.570312 45.292969 C 171.585938 45.292969 162.6875 54.199219 162.6875 65.1875 C 162.6875 76.171875 171.585938 85.078125 182.570312 85.078125 Z M 182.570312 85.078125 " fill-opacity="0.42" fill-rule="nonzero"/><path fill="#ffffff" d="M 182.171875 62.726562 L 181.050781 60.589844 C 180.332031 59.214844 180.867188 57.519531 182.238281 56.800781 C 183.171875 56.308594 183.535156 55.15625 183.042969 54.214844 L 181.375 51.007812 C 180.882812 50.078125 179.730469 49.710938 178.789062 50.203125 L 177.332031 50.964844 C 175.957031 51.6875 174.839844 52.804688 174.128906 54.179688 L 173.703125 55.003906 C 172.964844 56.417969 172.972656 58.105469 173.710938 59.523438 L 176.839844 65.507812 L 178.925781 69.5 L 182.050781 75.488281 C 182.789062 76.902344 184.171875 77.871094 185.753906 78.074219 L 186.671875 78.191406 C 188.207031 78.394531 189.765625 78.117188 191.136719 77.394531 L 192.59375 76.632812 C 193.527344 76.140625 193.890625 74.988281 193.410156 74.046875 L 191.738281 70.839844 C 191.246094 69.910156 190.09375 69.542969 189.15625 70.027344 C 187.78125 70.746094 186.085938 70.214844 185.367188 68.839844 L 184.246094 66.703125 Z M 182.171875 62.726562 " fill-opacity="1" fill-rule="nonzero"/><path stroke-linecap="butt" transform="matrix(0.597313, 0, 0, 0.597783, 4.012466, 25.529601)" fill="none" stroke-linejoin="miter" d="M 542.42824 441.693056 C 542.42824 445.489633 539.348038 448.587013 535.528848 448.587013 C 531.729278 448.587013 528.635997 445.509237 528.635997 441.693056 C 528.635997 437.876875 531.716199 434.799099 535.528848 434.799099 C 539.348038 434.812168 542.42824 437.889944 542.42824 441.693056 Z M 542.42824 441.693056 " stroke="#4570b4" stroke-width="1" stroke-opacity="0.42" stroke-miterlimit="10"/><path fill="#ffffff" d="M 81.90625 71.738281 C 86.109375 71.738281 89.515625 68.332031 89.515625 64.125 C 89.515625 59.921875 86.109375 56.511719 81.90625 56.511719 C 77.699219 56.511719 74.292969 59.921875 74.292969 64.125 C 74.292969 68.332031 77.699219 71.738281 81.90625 71.738281 Z M 81.90625 71.738281 " fill-opacity="0.42" fill-rule="nonzero"/><path stroke-linecap="butt" transform="matrix(0.597313, 0, 0, 0.597783, 4.012466, 25.529601)" fill="none" stroke-linejoin="miter" d="M 478.234472 254.275433 C 485.271197 254.275433 490.973822 248.570765 490.973822 241.539581 C 490.973822 234.501864 485.271197 228.80373 478.234472 228.80373 C 471.197747 228.80373 465.495122 234.501864 465.495122 241.539581 C 465.495122 248.570765 471.197747 254.275433 478.234472 254.275433 Z M 478.234472 254.275433 " stroke="#4570b4" stroke-width="1" stroke-opacity="0.42" stroke-miterlimit="10"/><path fill="#4570b4" d="M 50.050781 220.902344 C 54.148438 220.902344 57.46875 217.582031 57.46875 213.484375 C 57.46875 209.386719 54.148438 206.0625 50.050781 206.0625 C 45.957031 206.0625 42.636719 209.386719 42.636719 213.484375 C 42.636719 217.582031 45.957031 220.902344 50.050781 220.902344 Z M 50.050781 220.902344 " fill-opacity="0.42" fill-rule="nonzero"/><path stroke-linecap="butt" transform="matrix(0.597313, 0, 0, 0.597783, 4.012466, 25.529601)" fill="none" stroke-linejoin="miter" d="M 557.155661 298.161516 C 569.319517 298.161516 579.181395 288.307404 579.181395 276.146594 C 579.181395 263.992319 569.319517 254.138207 557.155661 254.138207 C 544.991805 254.138207 535.136466 263.992319 535.136466 276.146594 C 535.136466 288.307404 544.991805 298.161516 557.155661 298.161516 Z M 557.155661 298.161516 " stroke="#ffffff" stroke-width="1" stroke-opacity="0.42" stroke-miterlimit="10"/><path fill="#4570b4" d="M 325.628906 65.949219 L 234.464844 65.949219 C 230.566406 65.949219 227.414062 69.113281 227.414062 73.003906 L 227.414062 128.089844 C 227.414062 131.992188 230.574219 135.144531 234.464844 135.144531 L 292.609375 135.144531 L 292.609375 149.035156 C 292.609375 151.359375 295.320312 152.621094 297.101562 151.128906 L 316.078125 135.144531 L 325.628906 135.144531 C 329.527344 135.144531 332.679688 131.984375 332.679688 128.089844 L 332.679688 73.011719 C 332.679688 69.113281 329.527344 65.949219 325.628906 65.949219 Z M 325.628906 65.949219 " fill-opacity="0.42" fill-rule="nonzero"/><path fill="#68a8de" d="M 348.71875 72.824219 C 348.71875 81.058594 346.351562 88.730469 342.273438 95.175781 C 341.632812 96.210938 340.9375 97.21875 340.199219 98.1875 C 332.75 107.96875 321.09375 114.269531 308 114.269531 C 301.277344 114.269531 294.9375 112.617188 289.351562 109.675781 C 276.242188 102.789062 267.28125 88.867188 267.28125 72.824219 C 267.28125 70.953125 267.402344 69.101562 267.648438 67.289062 C 270.300781 47.015625 287.363281 31.371094 308 31.371094 C 330.484375 31.371094 348.71875 49.933594 348.71875 72.824219 Z M 348.71875 72.824219 " fill-opacity="1" fill-rule="nonzero"/><path fill="#c6606c" d="M 340.199219 98.175781 C 332.75 107.960938 321.09375 114.261719 308 114.261719 C 301.277344 114.261719 294.9375 112.609375 289.351562 109.667969 C 290.117188 107.757812 292.453125 102.695312 296.597656 99.863281 C 301.769531 96.320312 317.484375 94.191406 328.382812 95.125 C 334.816406 95.667969 338.367188 97.101562 340.199219 98.175781 Z M 340.199219 98.175781 " fill-opacity="1" fill-rule="nonzero"/><path fill="#ffffff" d="M 289.667969 51.796875 L 290.089844 72.035156 C 290.089844 72.035156 290.734375 92.71875 307.550781 92.351562 C 324.375 91.988281 327.925781 66.441406 327.925781 66.441406 L 325.28125 50.941406 C 325.28125 50.941406 305.617188 37.816406 289.667969 51.796875 Z M 289.667969 51.796875 " fill-opacity="1" fill-rule="nonzero"/><path fill="#ffffff" d="M 307.667969 87.484375 C 307.667969 87.484375 308.914062 95.3125 307.035156 97.871094 C 305.152344 100.433594 310.777344 109.320312 310.777344 109.320312 L 323.804688 97.363281 C 323.804688 97.363281 322.941406 88.597656 323.179688 80.921875 Z M 307.667969 87.484375 " fill-opacity="1" fill-rule="nonzero"/><path fill="#00496a" d="M 289.761719 56.445312 C 289.761719 56.445312 294.601562 57.988281 299.777344 57.527344 C 304.957031 57.070312 306.769531 54.984375 306.769531 54.984375 C 306.769531 54.984375 308.5 55.714844 311.3125 55.714844 C 314.128906 55.714844 316.222656 54.347656 316.222656 54.347656 C 316.222656 54.347656 314.316406 57.621094 315.128906 61.800781 C 315.941406 65.984375 318.671875 67.066406 318.671875 67.066406 C 318.671875 67.066406 320.398438 62.886719 323.390625 62.886719 C 326.382812 62.886719 327.476562 66.066406 326.707031 70.246094 C 325.933594 74.429688 321.121094 75.429688 321.121094 75.429688 L 323.171875 80.929688 C 323.171875 80.929688 330.925781 72.613281 331.832031 63.4375 C 332.742188 54.265625 328.113281 51.535156 328.113281 51.535156 C 328.113281 51.535156 328.503906 44.71875 319.410156 42.359375 C 310.3125 39.996094 304.320312 40.179688 297.507812 44.089844 C 297.507812 44.089844 291.785156 39.730469 286.972656 42.359375 C 282.160156 44.996094 283.523438 50.628906 285.878906 52.078125 C 285.878906 52.078125 281.25 53.253906 282.242188 58.980469 C 283.242188 64.703125 289.914062 64.253906 289.914062 64.253906 Z M 289.761719 56.445312 " fill-opacity="1" fill-rule="nonzero"/><path fill="#d9d9d9" d="M 307.550781 92.351562 C 307.550781 92.351562 319.78125 89.113281 320.984375 80.929688 C 320.984375 80.929688 324.019531 92.792969 307.550781 96.820312 C 307.550781 96.820312 308.042969 93.292969 307.550781 92.351562 Z M 307.550781 92.351562 " fill-opacity="1" fill-rule="nonzero"/><g clip-path="url(#e0509fe750)"><path fill="#4570b4" d="M 370.503906 47.644531 C 372.199219 37.265625 365.164062 27.476562 354.789062 25.78125 C 344.410156 24.082031 334.625 31.121094 332.929688 41.503906 C 331.234375 51.882812 338.269531 61.671875 348.644531 63.367188 C 359.023438 65.066406 368.808594 58.027344 370.503906 47.644531 Z M 370.503906 47.644531 " fill-opacity="0.42" fill-rule="nonzero"/></g><path fill="#ffffff" d="M 349.574219 49.703125 L 349.507812 48.820312 C 349.304688 46.980469 349.914062 44.972656 351.617188 42.929688 C 353.152344 41.121094 354 39.792969 354 38.257812 C 354 36.519531 352.90625 35.355469 350.761719 35.324219 C 349.53125 35.324219 348.175781 35.730469 347.320312 36.382812 L 346.507812 34.238281 C 347.632812 33.421875 349.574219 32.871094 351.378906 32.871094 C 355.296875 32.871094 357.066406 35.289062 357.066406 37.882812 C 357.066406 40.199219 355.769531 41.867188 354.132812 43.808594 C 352.632812 45.582031 352.089844 47.082031 352.191406 48.820312 L 352.226562 49.703125 Z M 348.828125 54.476562 C 348.828125 53.214844 349.675781 52.332031 350.871094 52.332031 C 352.066406 52.332031 352.878906 53.214844 352.878906 54.476562 C 352.878906 55.671875 352.101562 56.589844 350.835938 56.589844 C 349.640625 56.589844 348.828125 55.671875 348.828125 54.476562 Z M 348.828125 54.476562 " fill-opacity="1" fill-rule="nonzero"/><path fill="#a6d6f7" d="M 319.347656 268.503906 C 319.289062 268.699219 319.210938 268.859375 319.117188 268.988281 C 317.507812 271.316406 315.8125 273.582031 314.023438 275.769531 L 314.015625 275.769531 C 255.839844 347.289062 106.234375 347.289062 106.234375 347.289062 L 106.234375 261.933594 L 319.117188 261.933594 C 319.117188 261.933594 319.941406 266.578125 319.347656 268.503906 Z M 319.347656 268.503906 " fill-opacity="1" fill-rule="nonzero"/><path fill="#8cc6e5" d="M 319.347656 268.503906 C 319.289062 268.699219 319.210938 268.859375 319.117188 268.988281 C 317.507812 271.316406 315.8125 273.582031 314.023438 275.769531 L 314.015625 275.769531 L 106.234375 299.425781 L 106.234375 268.503906 Z M 319.347656 268.503906 " fill-opacity="1" fill-rule="nonzero"/><path fill="#ff6a76" d="M 203.953125 201.554688 L 193.65625 212.472656 C 193.65625 212.472656 191.542969 210.304688 189.019531 206.980469 C 187.816406 205.386719 186.519531 203.527344 185.324219 201.519531 C 183.753906 198.890625 182.347656 196.007812 181.542969 193.117188 C 178.832031 183.40625 179.941406 162.929688 179.941406 162.929688 C 179.941406 162.929688 184.332031 163.40625 185.832031 165.078125 C 194.28125 174.488281 203.953125 201.554688 203.953125 201.554688 Z M 203.953125 201.554688 " fill-opacity="1" fill-rule="nonzero"/><path fill="#4570b4" d="M 165.242188 237.222656 L 91.503906 237.222656 L 84.765625 180.5 C 83.996094 174.003906 88.519531 168.09375 94.886719 167.265625 L 99.320312 166.6875 L 155.664062 159.363281 Z M 165.242188 237.222656 " fill-opacity="1" fill-rule="nonzero"/><path fill="#ff6a76" d="M 147.242188 161.242188 C 147.242188 161.242188 123.246094 168.960938 121.941406 170.953125 C 120.644531 172.9375 131.910156 208.117188 131.910156 208.117188 L 129.738281 237.234375 L 178.601562 237.234375 L 181.066406 209.445312 C 181.066406 209.445312 186.296875 203.707031 186.617188 194.21875 C 186.941406 184.730469 179.941406 162.929688 179.941406 162.929688 L 162.894531 160.691406 Z M 147.242188 161.242188 " fill-opacity="1" fill-rule="nonzero"/><path fill="#00496a" d="M 154.105469 106.597656 C 154.105469 106.597656 137.382812 99.398438 125.507812 116.1875 C 113.632812 132.976562 125.933594 159.363281 125.933594 159.363281 C 125.933594 159.363281 156.234375 155.402344 164.617188 154.597656 C 173 153.792969 174.703125 153.792969 174.703125 153.792969 C 174.703125 153.792969 179.023438 127.277344 169.800781 117.527344 C 160.574219 107.785156 154.105469 106.597656 154.105469 106.597656 Z M 154.105469 106.597656 " fill-opacity="1" fill-rule="nonzero"/><path fill="#ffffff" d="M 160.328125 172.070312 L 146.207031 162.386719 C 146.207031 162.386719 147.367188 158.683594 147.078125 154.976562 C 147.011719 154.15625 146.875 153.332031 146.640625 152.554688 C 146.519531 152.164062 146.375 151.78125 146.207031 151.410156 L 160.328125 150.703125 C 160.328125 150.703125 160.421875 151.851562 160.683594 153.324219 C 160.894531 154.476562 161.207031 155.835938 161.683594 157.011719 C 162.023438 157.886719 162.445312 158.65625 162.972656 159.191406 C 165.132812 161.386719 160.328125 172.070312 160.328125 172.070312 Z M 160.328125 172.070312 " fill-opacity="1" fill-rule="nonzero"/><path fill="#d9d9d9" d="M 161.683594 157.011719 C 159.871094 157.074219 152.082031 157.191406 147.082031 154.976562 C 147.011719 154.15625 146.878906 153.332031 146.640625 152.554688 C 146.640625 152.554688 156.15625 153.714844 160.683594 153.324219 C 160.894531 154.476562 161.210938 155.835938 161.683594 157.011719 Z M 161.683594 157.011719 " fill-opacity="1" fill-rule="nonzero"/><path fill="#ffffff" d="M 168.277344 112.964844 L 170.632812 132.433594 C 170.632812 132.433594 173.71875 152.492188 157.539062 154.4375 C 141.359375 156.386719 135.917969 137.671875 135.917969 137.671875 L 134.003906 117.007812 C 133.996094 117.007812 151.0625 101.738281 168.277344 112.964844 Z M 168.277344 112.964844 " fill-opacity="1" fill-rule="nonzero"/><path fill="#00496a" d="M 160.894531 114.472656 C 160.894531 114.472656 158.777344 119.679688 151.820312 123.375 C 145.648438 126.648438 139.859375 127.558594 139.859375 127.558594 C 139.859375 127.558594 138.925781 133.042969 135.808594 136.476562 C 135.808594 136.476562 130.402344 126.21875 132.613281 117.382812 C 134.816406 108.546875 146.214844 104.28125 156.226562 105.179688 C 166.226562 106.078125 169.828125 109.75 171.160156 115.585938 C 172.492188 121.417969 170.269531 129.304688 170.269531 129.304688 C 170.269531 129.304688 168.125 116.296875 160.894531 114.472656 Z M 160.894531 114.472656 " fill-opacity="1" fill-rule="nonzero"/><path fill="#68a8de" d="M 133.992188 132.1875 C 133.992188 132.1875 132.070312 117.382812 143.476562 109.523438 C 150.910156 104.402344 160.269531 105.765625 160.269531 105.765625 C 160.269531 105.765625 154.371094 101.324219 142.75 106.453125 C 131.128906 111.582031 130.535156 123.183594 131.714844 132.1875 Z M 133.992188 132.1875 " fill-opacity="1" fill-rule="nonzero"/><path fill="#375c93" d="M 108.320312 237.222656 L 91.496094 237.222656 L 84.757812 180.5 C 83.988281 174.003906 88.511719 168.09375 94.878906 167.265625 L 99.3125 166.6875 Z M 108.320312 237.222656 " fill-opacity="1" fill-rule="nonzero"/><path fill="#375c93" d="M 149.785156 150.875 C 142.0625 150.875 136.332031 145.5 136.078125 145.253906 L 137.113281 144.125 C 137.171875 144.183594 143.4375 150.035156 151.265625 149.253906 L 151.410156 150.789062 C 150.859375 150.847656 150.316406 150.875 149.785156 150.875 Z M 149.785156 150.875 " fill-opacity="1" fill-rule="nonzero"/><path fill="#68a8de" d="M 341.070312 268.988281 L 109.710938 268.988281 C 103.523438 268.988281 97.625 266.433594 93.515625 261.964844 L 80.808594 248.179688 C 75.875 242.828125 79.800781 234.359375 87.207031 234.359375 L 313.066406 234.359375 C 320.875 234.359375 328.375 237.292969 333.984375 242.539062 L 347.03125 254.722656 C 352.582031 259.90625 348.785156 268.988281 341.070312 268.988281 Z M 341.070312 268.988281 " fill-opacity="1" fill-rule="nonzero"/><path fill="#ffffff" d="M 235.566406 166.1875 C 235.152344 166.417969 234.5 166.796875 233.785156 167.222656 L 233.652344 167 C 235.769531 165.652344 238.898438 163.542969 238.6875 163.03125 C 238.363281 162.261719 236.777344 162.667969 235.601562 163.304688 C 234.921875 163.675781 233.683594 164.414062 232.488281 165.136719 L 232.40625 165 C 234.507812 163.667969 238.007812 161.355469 237.777344 160.8125 C 237.457031 160.039062 235.871094 160.445312 234.695312 161.082031 C 233.949219 161.488281 232.53125 162.335938 231.234375 163.117188 L 231.132812 162.957031 C 233.21875 161.609375 235.929688 159.742188 235.734375 159.269531 C 235.414062 158.496094 233.828125 158.902344 232.652344 159.539062 C 231.058594 160.40625 226.4375 163.261719 226.4375 163.261719 L 223.074219 164.492188 C 223.800781 163.3125 225.84375 158.945312 224.886719 158.945312 C 223.929688 158.945312 221.300781 161.992188 220.207031 165.128906 C 219.394531 167.476562 219.292969 169.570312 219.292969 170.46875 L 189.789062 207.972656 C 189.789062 207.972656 190.484375 209.066406 191.542969 210.53125 C 194.605469 214.761719 201.730469 215.695312 205.851562 212.484375 C 209.105469 209.9375 211.664062 206.582031 214.183594 203.148438 C 218.921875 196.6875 225.980469 179.53125 227.632812 175.429688 L 234.3125 169.171875 C 236.144531 167.984375 238.472656 166.382812 238.304688 165.957031 C 238.015625 165.273438 236.609375 165.628906 235.566406 166.1875 Z M 235.566406 166.1875 " fill-opacity="1" fill-rule="nonzero"/><path fill="#00496a" d="M 157.953125 243.480469 C 157.953125 243.480469 161.402344 246.027344 162.769531 249.476562 C 164.132812 252.925781 155.410156 255.148438 140.859375 250.207031 C 130.273438 246.609375 148.148438 235.570312 157.953125 243.480469 Z M 157.953125 243.480469 " fill-opacity="1" fill-rule="nonzero"/><path fill="#00496a" d="M 152.480469 151.808594 L 150.53125 151.808594 C 149.835938 151.808594 149.265625 151.230469 149.265625 150.527344 L 149.265625 149.324219 C 149.265625 148.617188 149.835938 148.042969 150.53125 148.042969 L 152.480469 148.042969 C 153.175781 148.042969 153.742188 148.617188 153.742188 149.324219 L 153.742188 150.527344 C 153.734375 151.230469 153.175781 151.808594 152.480469 151.808594 Z M 152.480469 151.808594 " fill-opacity="1" fill-rule="nonzero"/><path fill="#4570b4" d="M 142.335938 136.578125 C 143.410156 141.972656 140.605469 147.109375 136.0625 148.050781 C 131.519531 148.992188 126.96875 145.378906 125.882812 139.988281 C 124.804688 134.59375 127.613281 129.457031 132.15625 128.515625 C 136.699219 127.574219 141.257812 131.1875 142.335938 136.578125 Z M 142.335938 136.578125 " fill-opacity="1" fill-rule="nonzero"/><path fill="#68a8de" d="M 137.757812 137.527344 C 138.390625 140.707031 136.738281 143.742188 134.0625 144.292969 C 131.382812 144.84375 128.695312 142.71875 128.0625 139.539062 C 127.425781 136.359375 129.078125 133.324219 131.757812 132.769531 C 134.433594 132.210938 137.121094 134.347656 137.757812 137.527344 Z M 137.757812 137.527344 " fill-opacity="1" fill-rule="nonzero"/><path fill="#ff6a76" d="M 125.890625 168.824219 C 125.890625 168.824219 121.773438 169.441406 120.09375 172.105469 C 112.921875 183.519531 98.972656 218.425781 98.972656 218.425781 L 112.433594 224.378906 C 112.433594 224.378906 130.128906 203.867188 131.757812 194.109375 C 133.382812 184.347656 125.890625 168.824219 125.890625 168.824219 Z M 125.890625 168.824219 " fill-opacity="1" fill-rule="nonzero"/><path fill="#ffffff" d="M 111.160156 221.402344 L 138.78125 239.378906 L 134.882812 248.035156 C 134.882812 248.035156 110.023438 239.097656 102.378906 233.316406 C 94.742188 227.523438 98.964844 218.425781 98.964844 218.425781 C 98.964844 218.425781 103.199219 217.925781 111.160156 221.402344 Z M 111.160156 221.402344 " fill-opacity="1" fill-rule="nonzero"/><path fill="#ffffff" d="M 137.976562 239.097656 C 137.976562 239.097656 147.292969 238.65625 150.648438 238.65625 C 154.003906 238.65625 159.855469 244.167969 159.210938 245.933594 C 158.558594 247.695312 151.84375 242.292969 151.84375 242.292969 L 151.460938 243.015625 C 151.460938 243.015625 157.421875 246.652344 157.742188 248.035156 C 158.066406 249.417969 156.71875 249.195312 154.769531 248.367188 C 152.820312 247.535156 149.894531 245.660156 149.894531 245.660156 L 149.574219 246.050781 C 149.574219 246.050781 155.210938 249.527344 155.210938 250.789062 C 155.210938 252.0625 151.148438 250.621094 148.164062 248.636719 L 147.785156 249.246094 C 147.785156 249.246094 151.472656 251.121094 151.742188 252.332031 C 152.011719 253.546875 150.003906 253.054688 147.785156 252.003906 C 145.5625 250.953125 143.503906 250.839844 140.632812 250.398438 C 137.757812 249.960938 134.351562 247.832031 134.351562 247.832031 Z M 137.976562 239.097656 " fill-opacity="1" fill-rule="nonzero"/><path fill="#4570b4" d="M 309.246094 188.683594 L 295.996094 255.148438 L 197.851562 255.148438 L 211.019531 189.0625 C 211.300781 187.664062 212.503906 186.664062 213.902344 186.664062 L 307.625 186.664062 C 308.667969 186.664062 309.457031 187.640625 309.246094 188.683594 Z M 309.246094 188.683594 " fill-opacity="1" fill-rule="nonzero"/><path fill="#00496a" d="M 197.847656 255.148438 L 170.886719 246.371094 C 169.9375 246.058594 169.292969 245.175781 169.292969 244.167969 C 169.292969 242.886719 170.328125 241.855469 171.609375 241.855469 L 200.511719 241.855469 Z M 197.847656 255.148438 " fill-opacity="1" fill-rule="nonzero"/><path fill="#c6606c" d="M 127.085938 171.519531 C 127.085938 171.519531 133.121094 188.597656 129.46875 200.324219 C 129.46875 200.324219 141.808594 186.605469 127.085938 171.519531 Z M 127.085938 171.519531 " fill-opacity="1" fill-rule="nonzero"/><path fill="#c6606c" d="M 189.015625 206.980469 C 187.8125 205.386719 186.515625 203.527344 185.320312 201.519531 C 187.8125 191.726562 182.015625 169.917969 182.015625 169.917969 C 194.722656 186.121094 191.179688 201.171875 189.015625 206.980469 Z M 189.015625 206.980469 " fill-opacity="1" fill-rule="nonzero"/><path fill="#375c93" d="M 216.929688 190.605469 L 295.996094 255.148438 L 205.84375 255.148438 Z M 216.929688 190.605469 " fill-opacity="1" fill-rule="nonzero"/><path fill="#a6d6f7" d="M 264.453125 231.730469 C 268.476562 230.074219 270.398438 225.464844 268.742188 221.4375 C 267.085938 217.410156 262.480469 215.488281 258.453125 217.148438 C 254.425781 218.804688 252.507812 223.410156 254.164062 227.441406 C 255.820312 231.46875 260.425781 233.390625 264.453125 231.730469 Z M 264.453125 231.730469 " fill-opacity="1" fill-rule="nonzero"/><path fill="#ffa9b3" d="M 146.988281 158.488281 L 160.328125 172.0625 C 160.328125 172.0625 158.015625 175.335938 154.167969 175.25 C 150.316406 175.15625 148.148438 170.265625 147.0625 167.714844 C 145.96875 165.160156 143.75 162.378906 143.75 162.378906 Z M 146.988281 158.488281 " fill-opacity="1" fill-rule="nonzero"/><path fill="#ffa9b3" d="M 160.328125 172.070312 C 160.328125 172.070312 163.769531 174.167969 167.125 172.707031 C 170.480469 171.257812 169.574219 169.035156 168.398438 166.6875 C 167.21875 164.347656 165.945312 160.167969 165.945312 160.167969 L 162.117188 157.960938 C 162.117188 157.960938 162.792969 166.890625 160.328125 172.070312 Z M 160.328125 172.070312 " fill-opacity="1" fill-rule="nonzero"/><path fill="#c6606c" d="M 180.898438 198.296875 L 147.285156 201.554688 C 147.285156 201.554688 154.820312 206.960938 166.421875 205.324219 C 178.023438 203.691406 180.898438 198.296875 180.898438 198.296875 Z M 180.898438 198.296875 " fill-opacity="1" fill-rule="nonzero"/><path fill="#4570b4" d="M 105.761719 88.953125 L 44.972656 88.953125 C 41.101562 88.953125 37.957031 92.097656 37.957031 95.972656 L 37.957031 112.089844 C 37.957031 115.964844 41.101562 119.113281 44.972656 119.113281 L 96.183594 119.113281 L 112.78125 128.710938 L 112.78125 95.972656 C 112.78125 92.097656 109.636719 88.953125 105.761719 88.953125 Z M 105.761719 88.953125 " fill-opacity="0.42" fill-rule="nonzero"/><path stroke-linecap="round" transform="matrix(0.597313, 0, 0, 0.597783, 4.012466, 25.529601)" fill="none" stroke-linejoin="round" d="M 64.643757 118.29784 L 170.658954 118.29784 " stroke="#ffffff" stroke-width="1" stroke-opacity="1" stroke-miterlimit="10"/><path stroke-linecap="round" transform="matrix(0.597313, 0, 0, 0.597783, 4.012466, 25.529601)" fill="none" stroke-linejoin="round" d="M 64.643757 131.229728 L 170.658954 131.229728 " stroke="#ffffff" stroke-width="1" stroke-opacity="1" stroke-miterlimit="10"/><path stroke-linecap="round" transform="matrix(0.597313, 0, 0, 0.597783, 4.012466, 25.529601)" fill="none" stroke-linejoin="round" d="M 64.643757 144.168151 L 170.658954 144.168151 " stroke="#ffffff" stroke-width="1" stroke-opacity="1" stroke-miterlimit="10"/><path fill="#c6606c" d="M 109.246094 276.378906 C 110.839844 263.222656 100.457031 265.195312 93.351562 272.140625 C 86.25 279.085938 79.292969 275.210938 87.167969 262.238281 C 95.039062 249.265625 100.804688 245.277344 99.71875 238.75 C 98.625 232.222656 92.9375 235.078125 83.089844 240.503906 C 73.242188 245.933594 82.546875 231.753906 81.800781 218.308594 C 81.054688 204.859375 67.707031 211.574219 66.585938 222.902344 C 65.46875 234.222656 70.519531 246.898438 64.035156 244.390625 C 57.5625 241.871094 53.636719 226.835938 47.746094 233.933594 C 41.855469 241.03125 64.375 265.101562 63.621094 272.371094 C 62.867188 279.636719 46.660156 257.488281 42.007812 264.78125 C 37.355469 272.074219 57.492188 320.757812 74.925781 319.394531 C 97.074219 317.664062 107.652344 289.539062 109.246094 276.378906 Z M 109.246094 276.378906 " fill-opacity="1" fill-rule="nonzero"/><path stroke-linecap="butt" transform="matrix(0.597313, 0, 0, 0.597783, 4.012466, 25.529601)" fill="none" stroke-linejoin="miter" d="M 116.085095 332.82734 C 116.085095 332.82734 111.428824 358.305577 113.286101 390.599356 C 115.149917 422.91274 119.374568 504.183023 119.374568 504.183023 " stroke="#aa4451" stroke-width="1" stroke-opacity="1" stroke-miterlimit="10"/><path stroke-linecap="butt" transform="matrix(0.597313, 0, 0, 0.597783, 4.012466, 25.529601)" fill="none" stroke-linejoin="miter" d="M 84.400213 364.840134 C 84.400213 364.840134 105.824294 390.259559 113.600007 395.859675 C 113.600007 395.859675 141.269509 369.211752 146.547052 364.840134 " stroke="#aa4451" stroke-width="1" stroke-opacity="1" stroke-miterlimit="10"/><path stroke-linecap="butt" transform="matrix(0.597313, 0, 0, 0.597783, 4.012466, 25.529601)" fill="none" stroke-linejoin="miter" d="M 71.739339 415.718193 C 71.739339 415.718193 103.953938 448.116525 116.555954 450.25986 L 163.949214 418.501914 " stroke="#aa4451" stroke-width="1" stroke-opacity="1" stroke-miterlimit="10"/><path fill="#ff6a76" d="M 67.367188 311.925781 C 67.367188 311.925781 75.707031 293.472656 71.214844 283.5625 C 66.722656 273.648438 60.28125 279.464844 58.257812 287.367188 C 56.230469 295.269531 49.695312 295.515625 49.695312 283.0625 C 49.695312 270.605469 52.042969 265.339844 48.492188 261.226562 C 44.941406 257.117188 42.167969 261.542969 37.566406 269.554688 C 32.964844 277.566406 33.457031 263.644531 27.203125 254.519531 C 20.945312 245.398438 14.445312 255.808594 18.480469 264.238281 C 22.523438 272.65625 31.472656 279.398438 25.855469 280.398438 C 20.234375 281.398438 11.070312 272.511719 9.960938 280.007812 C 8.851562 287.503906 34.921875 294.789062 37.480469 300.207031 C 40.050781 305.625 19.242188 297 19.082031 304.105469 C 18.921875 311.210938 43.136719 323.675781 54.101562 321.820312 C 65.070312 319.960938 67.367188 311.925781 67.367188 311.925781 Z M 67.367188 311.925781 " fill-opacity="1" fill-rule="nonzero"/><path stroke-linecap="butt" transform="matrix(0.597313, 0, 0, 0.597783, 4.012466, 25.529601)" fill="none" stroke-linejoin="miter" d="M 32.507635 392.331014 C 32.507635 392.331014 85.649297 477.672326 96.832197 504.183023 " stroke="#aa4451" stroke-width="1" stroke-opacity="1" stroke-miterlimit="10"/><path stroke-linecap="butt" transform="matrix(0.597313, 0, 0, 0.597783, 4.012466, 25.529601)" fill="none" stroke-linejoin="miter" d="M 23.796745 432.838732 L 61.171172 439.503979 L 68.861868 407.380098 " stroke="#aa4451" stroke-width="1" stroke-opacity="1" stroke-miterlimit="10"/><path stroke-linecap="butt" transform="matrix(0.597313, 0, 0, 0.597783, 4.012466, 25.529601)" fill="none" stroke-linejoin="miter" d="M 43.546661 471.176976 L 83.478114 478.084003 L 99.938558 441.849885 " stroke="#aa4451" stroke-width="1" stroke-opacity="1" stroke-miterlimit="10"/><path fill="#375c93" d="M 53.1875 326.921875 L 93.523438 326.921875 L 90.054688 347.289062 L 57.390625 347.289062 Z M 53.1875 326.921875 " fill-opacity="1" fill-rule="nonzero"/><path fill="#4570b4" d="M 94.015625 332.554688 L 53.058594 332.554688 C 51.550781 332.554688 50.339844 331.332031 50.339844 329.832031 L 50.339844 327.667969 C 50.339844 326.160156 51.558594 324.949219 53.058594 324.949219 L 94.015625 324.949219 C 95.523438 324.949219 96.734375 326.167969 96.734375 327.667969 L 96.734375 329.832031 C 96.742188 331.332031 95.523438 332.554688 94.015625 332.554688 Z M 94.015625 332.554688 " fill-opacity="1" fill-rule="nonzero"/><g clip-path="url(#08fa90d4c8)"><path fill="#4570b4" d="M 239.828125 349.519531 C 255.296875 349.519531 267.832031 336.976562 267.832031 321.503906 C 267.832031 306.03125 255.296875 293.492188 239.828125 293.492188 C 224.363281 293.492188 211.824219 306.03125 211.824219 321.503906 C 211.824219 336.976562 224.363281 349.519531 239.828125 349.519531 Z M 239.828125 349.519531 " fill-opacity="0.42" fill-rule="nonzero"/></g><path fill="#ffffff" d="M 257.425781 311.160156 L 222.226562 311.160156 C 221.261719 311.160156 220.480469 311.941406 220.480469 312.90625 L 220.480469 332.308594 C 220.480469 333.273438 221.261719 334.054688 222.226562 334.054688 L 257.425781 334.054688 C 258.390625 334.054688 259.171875 333.273438 259.171875 332.308594 L 259.171875 312.90625 C 259.171875 311.941406 258.390625 311.160156 257.425781 311.160156 Z M 257.949219 313.957031 L 241.421875 324.769531 C 241.28125 324.863281 241.117188 324.90625 240.957031 324.90625 C 240.8125 324.90625 240.667969 324.871094 240.542969 324.796875 L 221.292969 313.984375 C 220.886719 313.753906 220.742188 313.238281 220.972656 312.832031 C 221.199219 312.425781 221.71875 312.28125 222.125 312.507812 L 240.933594 323.066406 L 257.027344 312.535156 C 257.417969 312.28125 257.941406 312.390625 258.195312 312.78125 C 258.449219 313.179688 258.339844 313.703125 257.949219 313.957031 Z M 257.949219 313.957031 " fill-opacity="1" fill-rule="nonzero"/><path fill="#ffa9b3" d="M 261.453125 318.488281 C 267.1875 318.488281 271.835938 313.835938 271.835938 308.101562 C 271.835938 302.363281 267.1875 297.714844 261.453125 297.714844 C 255.71875 297.714844 251.070312 302.363281 251.070312 308.101562 C 251.070312 313.835938 255.71875 318.488281 261.453125 318.488281 Z M 261.453125 318.488281 " fill-opacity="1" fill-rule="nonzero"/></svg>